<svg xmlns="http://www.w3.org/2000/svg" style="border: 1px solid black" viewBox="0 0 271.43038986387285 140.26182310583093"><g transform="matrix(1,0,0,-1, 10,130.26182310583093)"><g><path id="boundaryCurve" fill="none" d="M 13 87.46182310583092 L 47.64843749999998 87.46182310583092 A 3,3 0 0 1 50.64843749999998 90.46182310583092 L 50.64843749999998 100.86182310583092 A 3,3 0 0 1 47.64843749999998 103.86182310583092 L 13 103.86182310583092 A 3,3 0 0 1 10 100.86182310583092 L 10 90.46182310583092 A 3,3 0 0 1 13 87.46182310583092" stroke="Black" stroke-width="1"/><text id="nodeLabel" text-anchor="middle" x="30.324218749999986" fill="Black" font-family="Times-Roman" font-size="12px" transform="scale(1,-1)"><tspan id="0" text-anchor="middle" x="30.324218749999986" alignment-baseline="middle" y="-95.66182310583092">kspacey</tspan></text></g><g><path id="boundaryCurve" fill="none" d="M 73.8657957700559 74.67212564931633 L 115.8677488950559 74.67212564931633 A 3,3 0 0 1 118.8677488950559 77.67212564931633 L 118.8677488950559 88.07212564931633 A 3,3 0 0 1 115.8677488950559 91.07212564931633 L 73.8657957700559 91.07212564931633 A 3,3 0 0 1 70.8657957700559 88.07212564931633 L 70.8657957700559 77.67212564931633 A 3,3 0 0 1 73.8657957700559 74.67212564931633" stroke="Black" stroke-width="1"/><text id="nodeLabel" text-anchor="middle" x="94.8667723325559" fill="Black" font-family="Times-Roman" font-size="12px" transform="scale(1,-1)"><tspan id="0" text-anchor="middle" x="94.8667723325559" alignment-baseline="middle" y="-82.87212564931633">swilliams</tspan></text></g><g><path id="boundaryCurve" fill="none" d="M 143.1063813850074 47.7297907917922 L 173.7587251350074 47.7297907917922 A 3,3 0 0 1 176.7587251350074 50.729790791792205 L 176.7587251350074 61.129790791792175 A 3,3 0 0 1 173.7587251350074 64.12979079179217 L 143.1063813850074 64.12979079179217 A 3,3 0 0 1 140.1063813850074 61.129790791792175 L 140.1063813850074 50.729790791792205 A 3,3 0 0 1 143.1063813850074 47.729790791792205" stroke="Black" stroke-width="1"/><text id="nodeLabel" text-anchor="middle" x="158.4325532600074" fill="Black" font-family="Times-Roman" font-size="12px" transform="scale(1,-1)"><tspan id="0" text-anchor="middle" x="158.4325532600074" alignment-baseline="middle" y="-55.929790791792186">kbacon</tspan></text></g><g><path id="boundaryCurve" fill="none" d="M 151.95720642331372 10 L 169.95915954831372 10 A 3,3 0 0 1 172.95915954831372 12.999999999999986 L 172.95915954831372 23.39999999999997 A 3,3 0 0 1 169.95915954831372 26.39999999999997 L 151.95720642331372 26.399999999999977 A 3,3 0 0 1 148.95720642331372 23.39999999999997 L 148.95720642331372 12.999999999999986 A 3,3 0 0 1 151.95720642331372 9.999999999999986" stroke="Black" stroke-width="1"/><text id="nodeLabel" text-anchor="middle" x="160.95818298581372" fill="Black" font-family="Times-Roman" font-size="12px" transform="scale(1,-1)"><tspan id="0" text-anchor="middle" x="160.95818298581372" alignment-baseline="middle" y="-18.19999999999999">bpitt</tspan></text></g><g><path id="boundaryCurve" fill="none" d="M 157.5348528546254 85.14663886134291 L 179.5270403546254 85.14663886134291 A 3,3 0 0 1 182.5270403546254 88.14663886134291 L 182.5270403546254 98.5466388613429 A 3,3 0 0 1 179.5270403546254 101.5466388613429 L 157.5348528546254 101.54663886134288 A 3,3 0 0 1 154.5348528546254 98.5466388613429 L 154.53485285462543 88.14663886134291 A 3,3 0 0 1 157.5348528546254 85.14663886134291" stroke="Black" stroke-width="1"/><text id="nodeLabel" text-anchor="middle" x="168.5309466046254" fill="Black" font-family="Times-Roman" font-size="12px" transform="scale(1,-1)"><tspan id="0" text-anchor="middle" x="168.5309466046254" alignment-baseline="middle" y="-93.3466388613429">hford</tspan></text></g><g><path id="boundaryCurve" fill="none" d="M 207.0924992388729 80.69340795534302 L 238.43038986387288 80.69340795534302 A 3,3 0 0 1 241.43038986387288 83.69340795534302 L 241.43038986387288 94.09340795534301 A 3,3 0 0 1 238.43038986387288 97.09340795534301 L 207.0924992388729 97.093407955343 A 3,3 0 0 1 204.0924992388729 94.09340795534301 L 204.0924992388729 83.69340795534302 A 3,3 0 0 1 207.0924992388729 80.69340795534302" stroke="Black" stroke-width="1"/><text id="nodeLabel" text-anchor="middle" x="222.7614445513729" fill="Black" font-family="Times-Roman" font-size="12px" transform="scale(1,-1)"><tspan id="0" text-anchor="middle" x="222.7614445513729" alignment-baseline="middle" y="-88.89340795534301">lwilson</tspan></text></g><g><path id="curve" fill="none" stroke="Black" stroke-opacity="1" stroke-width="1" d="M 50.64843749999998 91.63439322548024 L 70.8657957700559 87.6281387268379"/></g><g><path id="curve" fill="none" stroke="Black" stroke-opacity="1" stroke-width="1" d="M 114.21325460150211 74.67212564931633 L 141.03778600748709 63.302557038791974"/></g><g><path id="curve" fill="none" stroke="Black" stroke-opacity="1" stroke-width="1" d="M 160.40927552258663 26.399999999999977 L 158.9814607232345 47.7297907917922"/></g><g><path id="curve" fill="none" stroke="Black" stroke-opacity="1" stroke-width="1" d="M 182.5270403546254 92.19732547476887 L 204.0924992388729 90.42644061032037"/></g><g><path id="curve" fill="none" stroke="Black" stroke-opacity="1" stroke-width="1" d="M 206.78906970164383 80.70879231577786 L 174.32842028012675 64.0752020434899"/></g></g></svg>